#!OML:ASF E:/inclinewalkrobotboard/Project1/Captureday1/Session1/subject1.ASF
:FULLY-SPECIFIED
:DEGREES
213
root 0 0 0 -1.7695886550760722 -1.1038200295057834 3.8577136313441076
lowerback 10.798162732105421 -0.599188646943915 -4.627999739522022
upperback 1.073348585703858 -1.3943184482556419 0.28401313934841477
thorax -4.792177405325404 -0.5834145139801177 3.104531552111074
lowerneck -15.880933738913935 -2.607569492530921 -2.9915358808138417
upperneck 11.389361089081115 -3.0383399978421575 1.8155299692273799
head 5.860870050706824 -1.5689844750975577 0.7756452494905239
rclavicle 2.314623631850034E-16 2.0984724572487875E-15
rhumerus -31.819109072188585 -23.168807613114396 -80.56759261989384
rradius 23.47112296929121
rwrist 11.956285645514875
rhand -19.798377154191904 25.89296258884582
rfingers 7.125020000000003
rthumb 6.557852022261545 -4.175821056059114
lclavicle 4.6333362413884894E-15 2.2549345741751955E-15
lhumerus -26.847320736934975 -5.4083215248275 83.56015979721327
lradius 32.28602229007945
lwrist 8.806616757516426
lhand -28.19948947653972 24.967486736153184
lfingers 7.125020000000016
lthumb -1.6057269691742686 54.91229396490168
rfemur -30.481604223549052 1.6936497428573296 18.572134430416273
rtibia 49.03967221811996
rfoot -0.9644980401020171 -8.699155374502825
rtoes 5.074533956619755
lfemur 8.97148377598619 -5.787380136138069 -28.67657271240809
ltibia 16.828251481072364
lfoot -16.737775536147588 0.2654172290125163
ltoes -0.008899846094013952
214
root 0 0 0 -1.1144095487401735 -0.47043810540592945 3.4443650412604074
lowerback 10.085840740662281 -0.8517938948463345 -4.610170879091299
upperback 0.7339788800014035 -1.700791491596988 0.5745804334833436
thorax -4.73207923290486 -0.7316661467334746 3.4280917366311647
lowerneck -15.529474295553888 -2.6447912380844425 -3.021685134300661
upperneck 11.880010420418625 -3.0888168805266307 1.929980665047158
head 6.01709520403075 -1.5931165855049179 0.8177142706867369
rclavicle 5.031159174786503E-16 1.215731318483625E-15
rhumerus -32.15391527461846 -24.341808173229264 -80.26522833166356
rradius 22.721979919215904
rwrist 11.787184566518874
rhand -19.757944305469117 25.45664551866173
rfingers 7.125020000000003
rthumb 6.597104161486706 -4.616142089307495
lclavicle 5.1122310439007054E-15 1.6971138726317155E-15
lhumerus -26.521149043376475 -5.594045523713284 83.27733995601999
lradius 32.63657753611174
lwrist 8.852824403381803
lhand -28.218693093000795 24.670310198861813
lfingers 7.125020000000014
lthumb -1.6283635042400473 54.61477099367714
rfemur -31.614041741938504 3.6663734327261546 21.04132414311504
rtibia 40.537868411762574
rfoot -6.008972081429122 -10.878976135442707
rtoes 2.0230824258551268
lfemur 10.273271596554572 -6.181160537656856 -28.542710439164253
ltibia 16.383455172095914
lfoot -16.212693300060423 -0.0795422436608515
ltoes -0.9541380310690961
215
root 0 0 0 -0.8162759197642103 0.3354985518424911 2.7880168974796686
lowerback 9.681704139362605 -1.1184296870877075 -4.432096599125343
upperback 0.5092352876067165 -1.980451030851018 1.039551350941003
thorax -4.7166461723208615 -0.8673410539626427 3.8423843939462707
lowerneck -15.443526220778534 -2.7837811518320708 -3.1207441013490267
upperneck 13.74233875671171 -3.305488408897019 2.053400046785918
head 6.715733811867526 -1.678511350078619 0.8372410534039598
rclavicle 1.3022870915845307E-15 1.0921236887673356E-15
rhumerus -32.45643689870557 -25.235810925449883 -79.96631171451514
rradius 22.016422851396584
rwrist 11.424753589182153
rhand -19.672335130670128 25.162012751805655
rfingers 7.125020000000004
rthumb 6.67988841613073 -4.90261605869998
lclavicle 6.163121709114269E-15 1.9162934306283455E-15
lhumerus -26.341487877752034 -5.388380357235195 82.92915984427654
lradius 32.50191769330317
lwrist 8.720037911639926
lhand -28.29816584020704 24.66037771739555
lfingers 7.125020000000016
lthumb -1.7047828985320894 54.61582537919304
rfemur -29.696629228822545 4.747690126147873 21.47160588422494
rtibia 33.52515530522448
rfoot -8.291258550229603 -11.479974088742356
rtoes 0.009071097446486709
lfemur 11.266214647332834 -6.387842607992418 -28.14833760052439
ltibia 16.75047618611337
lfoot -15.427725256387474 -0.6089242336859271
ltoes -2.577258108223827
216
root 0 0 0 -0.8064969093089106 0.8525688470046942 2.115681384612292
lowerback 9.278821304625028 -1.3180708950712803 -4.1726147462522905
upperback 0.24362870145099053 -2.1500115975782528 1.5039342760786107
thorax -4.760289191579121 -0.9524839528594884 4.200716487798967
lowerneck -15.956752845156725 -2.9061508524160016 -3.19683806666855
upperneck 16.28965139821912 -3.480441537426663 1.9199880678483388
head 7.739944879757691 -1.7479844499685198 0.7609987005974178
rclavicle 1.6728841722185767E-15 1.0613775990865822E-15
rhumerus -32.86998109414821 -26.215676501647703 -79.60657623449669
rradius 21.03687701347546
rwrist 10.965167606003739
rhand -19.48479380763388 24.82983607350171
rfingers 7.125020000000006
rthumb 6.860472954130433 -5.216879291443014
lclavicle 6.643098186964057E-15 2.086500667642084E-15
lhumerus -26.378885516678437 -5.023203110054459 82.70052492529591
lradius 32.1295579041643
lwrist 8.52424710312077
lhand -28.3674987144749 24.823462843451694
lfingers 7.12502000000002
lthumb -1.7680763862975262 54.78791257154063
rfemur -27.94462159702266 5.244280973320796 21.9270017436942
rtibia 30.497217508212543
rfoot -9.126646014941079 -11.226436874052517
rtoes -0.4489478488840166
lfemur 12.262839713778881 -6.37475143396416 -27.489106317563333
ltibia 18.35041732593581
lfoot -14.237611447542537 -1.5383034257558816
ltoes -5.094856550214544
217
root 0 0 0 -1.160589462028754 0.964689710353321 1.388418958486478
lowerback 8.34019636559211 -1.4369168224671993 -3.6139665162685635
upperback -0.19173281822322397 -2.2016374652681074 1.837875297521102
thorax -4.715510489692759 -0.98855666825521 4.25422702970319
lowerneck -16.923785319938215 -2.88441852883293 -3.1542958144709226
upperneck 18.252807562225946 -3.4395207179834246 1.4737624416757504
head 8.553400639194495 -1.7328522174296512 0.5849634806740538
rclavicle 1.996525963929348E-15 9.273912140638746E-16
rhumerus -33.392226399793145 -27.106935111705525 -79.2831784604289
rradius 19.867973379113245
rwrist 10.249289231395036
rhand -19.24423626947057 24.52640856796467
rfingers 7.125020000000009
rthumb 7.092287434191411 -5.493328430933932
lclavicle 6.661903736030764E-15 2.0714984978183493E-15
lhumerus -26.60124463141151 -4.673527587262789 82.67327048725983
lradius 31.74863301800491
lwrist 8.372229351215426
lhand -28.38699454106535 25.024203408367065
lfingers 7.125020000000022
lthumb -1.7809547498232234 54.99583111104019
rfemur -26.22666876479118 5.499124666937158 22.65494426961942
rtibia 29.683468671319275
rfoot -9.360197287143635 -10.550517282366476
rtoes 0.23235824333096833
lfemur 12.800436598100507 -6.0953790030081745 -26.612681273685077
ltibia 21.398144032488126
lfoot -12.692690942812888 -2.796346053121343
ltoes -7.7798059267981365
218
root 0 0 0 -2.3028088788258714 0.6229293030038323 0.28454276239600107
lowerback 8.444292842577445 -1.5054819392939662 -2.3747194251143426
upperback -0.036216244772812434 -2.122676590019119 2.256398990326968
thorax -4.641554376268646 -0.970598617004113 4.0070698492886
lowerneck -17.23623007711496 -2.7090818334729323 -2.787782097648626
upperneck 19.97823405619024 -3.1297938936961422 0.5398006606719647
head 9.05369390130138 -1.6261249127499149 0.2195225763604956
rclavicle 1.26167737192257E-15 6.75988596763837E-16
rhumerus -34.05153065914738 -27.648376327143595 -79.17472280323659
rradius 18.479126091045323
rwrist 9.566524071190273
rhand -18.85648318951865 24.21202665610038
rfingers 7.1250200000000135
rthumb 7.466411538888912 -5.745111895798384
lclavicle 4.68108321599533E-15 1.78472712479049E-15
lhumerus -27.281031335517884 -4.108996520710413 82.95542614910529
lradius 31.087208823503303
lwrist 8.11983819574744
lhand -28.30068433605158 25.313579985987495
lfingers 7.125020000000028
lthumb -1.6887071423064874 55.30014675938544
rfemur -22.10286656324443 5.836149012557279 24.659380349968295
rtibia 30.330844048043588
rfoot -9.812730605203036 -9.076153751420641
rtoes 2.3048361272272557
lfemur 10.685146652448559 -4.888410498352322 -24.4117903557007
ltibia 31.709540954857776
lfoot -7.6204732415101795 -6.397726539085449
ltoes -9.498725041196582
219
root 0 0 0 -3.121642168680106 0.21622997782213904 -0.7982439441414542
lowerback 10.466158773574845 -1.5852017823545501 -1.2359212193850755
upperback 0.48880703595225683 -2.06914457879933 2.5722019260947686
thorax -5.245984502257768 -0.9720585557752521 3.676041263586958
lowerneck -17.627871701029775 -2.775605973340314 -2.4491965761667265
upperneck 16.907806170387364 -3.03796050482915 -0.24032084193323944
head 8.055069107331812 -1.670233585198843 -0.0705880213210816
rclavicle 3.247320517847129E-16 1.3830452947032198E-16
rhumerus -34.03861979220525 -27.438157289727545 -79.24076374462201
rradius 18.06648181135383
rwrist 9.775607485260299
rhand -18.63577606953517 24.279759327828863
rfingers 7.125020000000014
rthumb 7.677419304977857 -5.649750146190858
lclavicle 2.536640958201501E-15 1.0306000170177546E-15
lhumerus -27.793624299687824 -3.6966063991370226 83.38254233475332
lradius 30.46367024580465
lwrist 7.876224145598101
lhand -28.208102059096635 25.501997939739987
lfingers 7.125020000000032
lthumb -1.5924200045935386 55.50251148386978
rfemur -16.18562391444232 6.506220356091436 28.151529299575806
rtibia 32.436605105059925
rfoot -10.553696094120514 -7.494415207846403
rtoes 4.896696217456896
lfemur 1.2655440680520451 -2.7023036607308946 -20.68633067488284
ltibia 46.80040626408048
lfoot 2.993203625835722 -12.485017512829405
ltoes -2.113282180949202
220
root 0 0 0 -3.5919359030633236 -0.3238263711237219 -1.9127660797809511
lowerback 10.992679115554088 -1.403855928771422 -0.09724905143929041
upperback 0.5007042443803602 -1.6850026697054614 2.7200471798612114
thorax -5.557901672032831 -0.8081108954734468 3.1339107818342176
lowerneck -18.091856037068197 -2.7248505811350485 -2.222757376307308
upperneck 16.243041315855464 -3.000227804835212 -0.3792382303446111
head 7.970629834671894 -1.6429982856030005 -0.14669500752409032
rclavicle -3.476536576282798E-16 -1.4837329375108924E-15
rhumerus -33.605385062721766 -26.97656888726277 -79.28195407418687
rradius 17.755511607737205
rwrist 10.370667013168166
rhand -18.42590312233232 24.71687231348384
rfingers 7.125020000000015
rthumb 7.876686970017909 -5.193324471719578
lclavicle 3.646699678102559E-17 -9.703071343082555E-16
lhumerus -28.258042747918054 -3.0707756262692185 84.04434475153495
lradius 29.334674486115787
lwrist 7.384764058467942
lhand -28.141407973296523 25.737835776931625
lfingers 7.125020000000037
lthumb -1.5181110888102705 55.7535690889935
rfemur -8.70964215248565 7.483546663651792 32.927231773260495
rtibia 35.64190595725569
rfoot -11.598248367335561 -5.75886710118526
rtoes 8.164402712430695
lfemur -7.647016675660072 1.2108821287587457 -18.084737306124225
ltibia 54.72180434770645
lfoot 7.927544081307442 -15.41822374213356
ltoes -2.26115336262432
